<svg width="384" height="136" viewBox="0 0 384 136" fill="none" xmlns="http://www.w3.org/2000/svg">
<path d="M181 89.0664C181 82.7151 186.149 77.5664 192.5 77.5664C198.851 77.5664 204 82.7151 204 89.0664C204 95.4177 198.851 100.566 192.5 100.566C186.149 100.566 181 95.4177 181 89.0664Z" fill="#FF9C9C"/>
<path d="M183 89.0664C183 83.8197 187.253 79.5664 192.5 79.5664C197.747 79.5664 202 83.8197 202 89.0664C202 94.3131 197.747 98.5664 192.5 98.5664C187.253 98.5664 183 94.3131 183 89.0664Z" fill="#FF9C9C"/>
<path d="M189 89.5664C189 86.805 190.567 84.5664 192.5 84.5664C194.433 84.5664 196 86.805 196 89.5664C196 92.3278 194.433 94.5664 192.5 94.5664C190.567 94.5664 189 92.3278 189 89.5664Z" fill="#22B9DA" fill-opacity="0.54"/>
<path d="M276.681 1.53622H381.931V100.745C376.426 128.466 364.548 134.819 332.245 134.529L51.221 134.529C13.9244 135.126 2.17758 128.72 1.53424 102.353V0.999969L100.373 0.999969C100.373 0.999969 123.347 43.9009 189.596 43.9009C257.448 43.9009 276.681 1.53622 276.681 1.53622Z" fill="#EA5400"/>
<path d="M381.931 55.9812C325.4 50.6353 262.469 90.1952 266.736 134.566M2.60278 55.9812C59.1341 50.6353 122.065 90.1952 117.799 134.566M383 60.2291C329.086 55.1721 269.068 92.5936 273.137 134.566M1.53425 60.2291C55.4483 55.1721 115.466 92.5936 111.397 134.566M316.751 2.0685C302.326 42.6727 249.434 69.386 189.596 69.386C129.758 69.386 72.0573 42.6727 60.3035 0.999967M381.931 4.73986H327.436C309.117 44.3342 271.098 71.7017 188.527 76.3314C98.4312 73.0401 57.5468 34.572 49.0839 4.73986L1.00002 4.73986V7.41116H46.2501C54.9751 37.6886 97.1265 76.7308 190.014 80.0713C275.143 75.3725 314.341 47.5964 333.228 7.41116H381.931V4.73986ZM381.931 1.53622H276.681C276.681 1.53622 257.448 43.9009 189.596 43.9009C123.347 43.9009 100.373 0.999967 100.373 0.999967L1.53425 0.999967V102.353C2.17759 128.72 13.9244 135.126 51.221 134.529L332.245 134.529C364.548 134.819 376.426 128.466 381.931 100.745V1.53622Z" stroke="black" stroke-width="1.06853"/>
</svg>
