<svg width="384" height="136" viewBox="0 0 384 136" fill="none" xmlns="http://www.w3.org/2000/svg">
<path d="M2.06851 130.827H56.5636C74.8826 91.2323 111.415 64.1297 193.986 59.5C284.082 62.7914 326.453 100.994 334.916 130.827H382.466V128.155H337.75C329.025 97.8778 286.874 58.8356 193.986 55.4951C108.857 60.1939 69.6591 87.97 50.7725 128.155H2.06851V130.827Z" fill="#5C5757"/>
<path d="M2.06853 79.5852C58.584 84.9296 121.496 45.3934 117.268 1.03726H110.866C114.87 42.7179 55.6878 79.8987 2.06855 75.432L2.06853 79.5852Z" fill="#883030" fill-opacity="0.96"/>
<path fill-rule="evenodd" clip-rule="evenodd" d="M2.06855 134.03H107.319C107.319 134.03 126.552 91.6655 194.404 91.6655C260.653 91.6655 283.627 134.566 283.627 134.566H382.466V130.827H334.916C326.453 100.994 284.082 62.7914 193.986 59.5C111.415 64.1297 74.8826 91.2323 56.5636 130.827H2.06851L2.06855 134.03ZM2.06851 128.155L2.06853 79.5852C58.584 84.9296 121.496 45.3934 117.268 1.03726H266.198C261.971 45.393 325.95 84.3444 382.466 79V128.155H337.75C329.025 97.8778 286.874 58.8356 193.986 55.4951C108.857 60.1939 69.6591 87.97 50.7725 128.155H2.06851ZM382.466 75.3374V33.213C381.822 6.84646 370.076 0.43995 332.779 1.03726H272.599C268.57 42.9949 328.568 80.3928 382.466 75.3374ZM110.866 1.03726C114.87 42.7179 55.6878 79.8987 2.06855 75.432V34.8218C7.57441 7.10061 19.4517 0.747764 51.7553 1.03726H110.866Z" fill="#EA5400"/>
<path d="M382.466 79V75.3374C328.568 80.3928 268.57 42.9949 272.599 1.03726H266.198C261.971 45.393 325.95 84.3444 382.466 79Z" fill="#883030" fill-opacity="0.96"/>
<path d="M2.06853 79.5852H1.53427H2.06853ZM2.06851 130.827H1.53425H2.06851ZM56.5636 130.827V131.361H56.9051L57.0485 131.051L56.5636 130.827ZM193.986 59.5L194.005 58.9661L193.981 58.9652L193.956 58.9666L193.986 59.5ZM334.916 130.827L334.402 130.972L334.512 131.361H334.916V130.827ZM383 130.827V131.361H383.534V130.827H383ZM2.06851 128.155H1.53425H2.06851ZM50.7725 128.155V128.69H51.1117L51.256 128.382L50.7725 128.155ZM193.986 55.4951L194.005 54.9612L193.981 54.9603L193.956 54.9617L193.986 55.4951ZM337.75 128.155L337.237 128.303L337.348 128.69H337.75V128.155ZM383 128.155H383.534V127.621H383V128.155ZM2.06855 134.03H1.53429L1.53429 134.564H2.06855V134.03ZM107.319 134.03V134.564H107.663L107.805 134.251L107.319 134.03ZM283.627 134.566L283.156 134.819L283.307 135.101H283.627V134.566ZM382.466 134.566V135.101H383V134.566H382.466ZM382.466 33.213H383L383 33.1999L382.466 33.213ZM332.779 1.03726V1.57159L332.788 1.57145L332.779 1.03726ZM51.7553 1.03726L51.7505 1.57152H51.7553V1.03726ZM2.06855 34.8218L1.54452 34.7177L1.53429 34.7692V34.8218H2.06855ZM2.06851 131.361H56.5636V130.292H2.06851V131.361ZM57.0485 131.051C66.1664 111.344 79.8069 94.7592 101.443 82.5165C123.092 70.267 152.779 62.3455 194.016 60.0334L193.956 58.9666C152.622 61.2842 122.757 69.2288 100.917 81.5866C79.065 93.9512 65.2798 110.715 56.0787 130.602L57.0485 131.051ZM193.966 60.0339C283.952 63.3213 326.03 101.461 334.402 130.972L335.43 130.681C326.876 100.528 284.212 62.2615 194.005 58.9661L193.966 60.0339ZM2.06851 128.69H50.7725V127.621H2.06851V128.69ZM51.256 128.382C60.6545 108.385 75.0996 91.4824 97.7959 78.9858C120.504 66.4827 151.499 58.3753 194.015 56.0286L193.956 54.9617C151.343 57.3137 120.175 65.4438 97.2805 78.0497C74.374 90.6621 59.7771 107.74 50.289 127.928L51.256 128.382ZM193.967 56.029C286.74 59.3654 328.603 98.3419 337.237 128.303L338.263 128.007C329.447 97.4136 287.008 58.3058 194.005 54.9612L193.967 56.029ZM1.53425 128.155V130.827H2.60278V128.155H1.53425ZM383.534 130.827V128.155H382.466V130.827H383.534ZM2.06855 134.564H107.319V133.496H2.06855V134.564ZM107.319 134.03C107.805 134.251 107.805 134.251 107.805 134.251C107.805 134.251 107.805 134.251 107.806 134.25C107.806 134.25 107.807 134.248 107.808 134.246C107.81 134.242 107.813 134.235 107.817 134.225C107.826 134.207 107.839 134.178 107.858 134.14C107.895 134.063 107.951 133.948 108.028 133.796C108.182 133.493 108.417 133.045 108.742 132.474C109.392 131.331 110.398 129.692 111.818 127.723C114.657 123.785 119.149 118.527 125.75 113.266C138.946 102.75 160.6 92.1998 194.404 92.1998V91.1312C160.357 91.1312 138.468 101.764 125.084 112.43C118.396 117.76 113.839 123.093 110.951 127.098C109.507 129.101 108.48 130.772 107.813 131.946C107.48 132.533 107.236 132.995 107.075 133.313C106.994 133.471 106.935 133.594 106.894 133.678C106.874 133.719 106.859 133.751 106.849 133.774C106.844 133.785 106.84 133.793 106.837 133.799C106.836 133.802 106.835 133.804 106.834 133.806C106.833 133.807 106.833 133.808 106.833 133.808C106.833 133.809 106.832 133.809 107.319 134.03ZM194.404 92.1998C227.403 92.1998 249.596 102.881 263.534 113.54C270.506 118.872 275.417 124.202 278.583 128.195C280.166 130.191 281.312 131.853 282.061 133.013C282.436 133.593 282.711 134.047 282.892 134.355C282.982 134.509 283.049 134.626 283.093 134.705C283.114 134.744 283.131 134.773 283.141 134.792C283.146 134.802 283.15 134.809 283.153 134.813C283.154 134.815 283.155 134.817 283.155 134.818C283.155 134.818 283.156 134.818 283.156 134.819C283.156 134.819 283.156 134.819 283.627 134.566C284.098 134.314 284.097 134.314 284.097 134.313C284.097 134.313 284.096 134.312 284.096 134.311C284.095 134.309 284.094 134.307 284.092 134.304C284.089 134.298 284.084 134.29 284.078 134.279C284.066 134.257 284.048 134.224 284.025 134.182C283.978 134.098 283.907 133.974 283.813 133.814C283.625 133.494 283.342 133.026 282.959 132.433C282.193 131.247 281.027 129.557 279.421 127.531C276.208 123.48 271.236 118.085 264.183 112.692C250.072 101.9 227.654 91.1312 194.404 91.1312V92.1998ZM283.627 135.101H382.466V134.032H283.627V135.101ZM383 33.1999C382.677 19.9508 379.558 11.5269 371.651 6.56124C363.822 1.64406 351.408 0.204584 332.77 0.503059L332.788 1.57145C351.447 1.27262 363.554 2.73775 371.083 7.46612C378.535 12.146 381.612 20.1086 381.932 33.226L383 33.1999ZM51.7601 0.503011C35.6037 0.358224 24.4122 1.86582 16.571 6.97797C8.69564 12.1124 4.30774 20.8053 1.54452 34.7177L2.59258 34.9258C5.33522 21.1171 9.63889 12.773 17.1546 7.87307C24.7044 2.95088 35.6033 1.4268 51.7505 1.5715L51.7601 0.503011ZM67.7524 133.677C74.9075 113.537 91.6203 96.7972 114.044 85.0862C136.465 73.3767 164.561 66.7147 194.404 66.7147V65.6462C164.41 65.6462 136.141 72.3407 113.55 84.139C90.9616 95.9357 74.0157 112.855 66.7456 133.319L67.7524 133.677ZM194.404 66.7147C224.249 66.7147 253.549 73.3775 276.84 85.2224C300.138 97.071 317.36 114.07 323.182 134.711L324.211 134.421C318.279 113.39 300.774 96.1961 277.324 84.2699C253.866 72.34 224.397 65.6462 194.404 65.6462V66.7147ZM383 134.566V130.827H381.931V134.566H383ZM382.466 130.292H334.916V131.361H382.466V130.292ZM1.53425 130.827L1.53429 134.03H2.60282L2.60278 130.827H1.53425ZM381.931 33.213V128.155H383V33.213H381.931ZM382.466 127.621H337.75V128.69H382.466V127.621ZM382.466 128.69H383V127.621H382.466V128.69ZM383 130.827V128.155H381.931V130.827H383ZM382.466 131.361H383V130.292H382.466V131.361ZM1.53427 79.5852L1.53425 128.155H2.60278L2.6028 79.5852H1.53427ZM116.736 1.08795C118.823 22.9838 104.338 43.7943 82.1517 58.5036C59.9812 73.2023 30.2451 81.7131 2.11883 79.0533L2.01823 80.1171C30.4074 82.8017 60.3849 74.2167 82.7421 59.3942C105.083 44.5825 119.941 23.4468 117.8 0.986563L116.736 1.08795ZM2.0242 75.9644C28.9623 78.2085 57.2811 69.9935 78.3714 55.9849C99.4452 41.9873 113.427 22.1093 111.398 0.986177L110.334 1.08833C112.309 21.6458 98.7014 41.1986 77.7802 55.0948C56.8757 68.9801 28.7941 77.1222 2.11291 74.8995L2.0242 75.9644ZM110.866 0.50299H51.7553V1.57152H110.866V0.50299ZM1.53429 34.8218V75.432H2.60282V34.8218H1.53429ZM1.53429 75.432V134.03H2.60282V75.432H1.53429ZM0.950107 75.8693C1.30788 75.9028 1.66592 75.9345 2.0242 75.9644L2.11291 74.8995C1.75831 74.87 1.40397 74.8386 1.04989 74.8054L0.950107 75.8693ZM111.398 0.986177C111.397 0.973647 111.396 0.961066 111.394 0.948448L110.331 1.05155C110.332 1.06377 110.333 1.07603 110.334 1.08833L111.398 0.986177ZM117.268 0.50299H110.866V1.57152H117.268V0.50299ZM2.60278 128.155L2.60282 75.432H1.53429L1.53425 128.155H2.60278ZM117.8 0.986563C117.799 0.974121 117.797 0.961517 117.796 0.948864L116.733 1.05114C116.734 1.06332 116.735 1.07555 116.736 1.08795L117.8 0.986563ZM1.53429 75.432L1.53427 79.5852H2.6028L2.60282 75.432H1.53429ZM117.268 1.57152H266.198V0.50299H117.268V1.57152ZM265.666 0.98657C263.525 23.4521 278.656 44.4414 301.263 59.1044C323.886 73.7789 354.129 82.2163 382.516 79.5319L382.415 78.4681C354.287 81.1281 324.282 72.7621 301.844 58.208C279.388 43.6425 264.644 22.9782 266.73 1.08794L265.666 0.98657ZM381.931 79V128.155H383V79H381.931ZM383 75.3374V33.213H381.931V75.3374H383ZM332.779 0.50299H272.599V1.57152H332.779V0.50299ZM272.068 0.986177C270.025 22.2497 284.207 42.2513 305.516 56.2636C326.842 70.2872 355.436 78.4092 382.516 75.8693L382.416 74.8054C355.597 77.3209 327.243 69.2718 306.103 55.3708C284.946 41.4587 271.144 21.7825 273.131 1.08833L272.068 0.986177ZM273.131 1.08833C273.132 1.0762 273.134 1.06403 273.135 1.05155L272.071 0.948448C272.07 0.960806 272.069 0.973475 272.068 0.986177L273.131 1.08833ZM272.599 0.50299H266.198V1.57152H272.599V0.50299ZM266.73 1.08794C266.731 1.07577 266.732 1.06355 266.733 1.05114L265.67 0.948864C265.668 0.961293 265.667 0.973907 265.666 0.98657L266.73 1.08794ZM383 79V75.3374H381.931V79H383Z" fill="black"/>
<ellipse cx="194.5" cy="46.5" rx="11.5" ry="10.5" fill="#6F6464"/>
<path d="M206 46.5C206 52.8513 200.851 58 194.5 58C188.149 58 183 52.8513 183 46.5C183 40.1487 188.149 35 194.5 35C200.851 35 206 40.1487 206 46.5Z" fill="black"/>
<path d="M204 46.5C204 51.7467 199.747 56 194.5 56C189.253 56 185 51.7467 185 46.5C185 41.2533 189.253 37 194.5 37C199.747 37 204 41.2533 204 46.5Z" fill="black"/>
<path d="M198 46C198 48.7614 196.433 51 194.5 51C192.567 51 191 48.7614 191 46C191 43.2386 192.567 41 194.5 41C196.433 41 198 43.2386 198 46Z" fill="#22B9DA" fill-opacity="0.54"/>
</svg>
